<mxfile host="app.diagrams.net" agent="Mozilla/5.0 (Windows NT 10.0; Win64; x64) AppleWebKit/537.36 (KHTML, like Gecko) Chrome/138.0.0.0 Safari/537.36" version="28.0.6" pages="2">
  <diagram name="ERD" id="03018318-947c-dd8e-b7a3-06fadd420f32">
    <mxGraphModel dx="2701" dy="1701" grid="0" gridSize="10" guides="1" tooltips="1" connect="1" arrows="1" fold="1" page="1" pageScale="1" pageWidth="1100" pageHeight="850" background="none" math="0" shadow="0">
      <root>
        <mxCell id="0" />
        <mxCell id="1" parent="0" />
        <mxCell id="caGI-VMHAY9TWnrJhwBU-95" style="rounded=0;orthogonalLoop=1;jettySize=auto;html=1;" edge="1" parent="1" source="caGI-VMHAY9TWnrJhwBU-1" target="caGI-VMHAY9TWnrJhwBU-93">
          <mxGeometry relative="1" as="geometry" />
        </mxCell>
        <mxCell id="caGI-VMHAY9TWnrJhwBU-118" style="rounded=0;orthogonalLoop=1;jettySize=auto;html=1;entryX=0.5;entryY=0;entryDx=0;entryDy=0;" edge="1" parent="1" source="caGI-VMHAY9TWnrJhwBU-1" target="caGI-VMHAY9TWnrJhwBU-117">
          <mxGeometry relative="1" as="geometry" />
        </mxCell>
        <mxCell id="caGI-VMHAY9TWnrJhwBU-1" value="PESERTA" style="rounded=0;whiteSpace=wrap;html=1;" vertex="1" parent="1">
          <mxGeometry x="432" y="131" width="120" height="60" as="geometry" />
        </mxCell>
        <mxCell id="caGI-VMHAY9TWnrJhwBU-89" style="rounded=0;orthogonalLoop=1;jettySize=auto;html=1;" edge="1" parent="1" source="caGI-VMHAY9TWnrJhwBU-3" target="caGI-VMHAY9TWnrJhwBU-88">
          <mxGeometry relative="1" as="geometry" />
        </mxCell>
        <mxCell id="caGI-VMHAY9TWnrJhwBU-97" style="rounded=0;orthogonalLoop=1;jettySize=auto;html=1;" edge="1" parent="1" source="caGI-VMHAY9TWnrJhwBU-3" target="caGI-VMHAY9TWnrJhwBU-96">
          <mxGeometry relative="1" as="geometry" />
        </mxCell>
        <mxCell id="caGI-VMHAY9TWnrJhwBU-103" style="rounded=0;orthogonalLoop=1;jettySize=auto;html=1;" edge="1" parent="1" source="caGI-VMHAY9TWnrJhwBU-3">
          <mxGeometry relative="1" as="geometry">
            <mxPoint x="386.174029806386" y="457.43480383831525" as="targetPoint" />
          </mxGeometry>
        </mxCell>
        <mxCell id="caGI-VMHAY9TWnrJhwBU-3" value="REGISTRASI" style="rounded=0;whiteSpace=wrap;html=1;" vertex="1" parent="1">
          <mxGeometry x="420" y="359" width="120" height="60" as="geometry" />
        </mxCell>
        <mxCell id="caGI-VMHAY9TWnrJhwBU-4" value="" style="endArrow=none;html=1;rounded=0;entryX=0;entryY=0.5;entryDx=0;entryDy=0;" edge="1" parent="1" target="caGI-VMHAY9TWnrJhwBU-12">
          <mxGeometry width="50" height="50" relative="1" as="geometry">
            <mxPoint x="552" y="161" as="sourcePoint" />
            <mxPoint x="629" y="154" as="targetPoint" />
          </mxGeometry>
        </mxCell>
        <mxCell id="caGI-VMHAY9TWnrJhwBU-5" value="id_peserta" style="ellipse;whiteSpace=wrap;html=1;" vertex="1" parent="1">
          <mxGeometry x="402" y="61" width="70" height="30" as="geometry" />
        </mxCell>
        <mxCell id="caGI-VMHAY9TWnrJhwBU-6" value="nama" style="ellipse;whiteSpace=wrap;html=1;" vertex="1" parent="1">
          <mxGeometry x="570" y="173" width="70" height="30" as="geometry" />
        </mxCell>
        <mxCell id="caGI-VMHAY9TWnrJhwBU-7" value="email" style="ellipse;whiteSpace=wrap;html=1;" vertex="1" parent="1">
          <mxGeometry x="542" y="61" width="70" height="30" as="geometry" />
        </mxCell>
        <mxCell id="caGI-VMHAY9TWnrJhwBU-8" value="" style="endArrow=none;html=1;rounded=0;exitX=0.25;exitY=0;exitDx=0;exitDy=0;" edge="1" parent="1" source="caGI-VMHAY9TWnrJhwBU-1">
          <mxGeometry width="50" height="50" relative="1" as="geometry">
            <mxPoint x="382" y="141" as="sourcePoint" />
            <mxPoint x="432" y="91" as="targetPoint" />
          </mxGeometry>
        </mxCell>
        <mxCell id="caGI-VMHAY9TWnrJhwBU-9" value="" style="endArrow=none;html=1;rounded=0;exitX=0.5;exitY=0;exitDx=0;exitDy=0;entryX=0.5;entryY=1;entryDx=0;entryDy=0;" edge="1" parent="1" source="caGI-VMHAY9TWnrJhwBU-1" target="caGI-VMHAY9TWnrJhwBU-94">
          <mxGeometry width="50" height="50" relative="1" as="geometry">
            <mxPoint x="452" y="131" as="sourcePoint" />
            <mxPoint x="502" y="81" as="targetPoint" />
          </mxGeometry>
        </mxCell>
        <mxCell id="caGI-VMHAY9TWnrJhwBU-10" value="" style="endArrow=none;html=1;rounded=0;" edge="1" parent="1">
          <mxGeometry width="50" height="50" relative="1" as="geometry">
            <mxPoint x="532" y="131" as="sourcePoint" />
            <mxPoint x="572" y="91" as="targetPoint" />
          </mxGeometry>
        </mxCell>
        <mxCell id="caGI-VMHAY9TWnrJhwBU-98" style="rounded=0;orthogonalLoop=1;jettySize=auto;html=1;entryX=0.5;entryY=0;entryDx=0;entryDy=0;" edge="1" parent="1" source="caGI-VMHAY9TWnrJhwBU-12" target="caGI-VMHAY9TWnrJhwBU-90">
          <mxGeometry relative="1" as="geometry" />
        </mxCell>
        <mxCell id="caGI-VMHAY9TWnrJhwBU-99" style="rounded=0;orthogonalLoop=1;jettySize=auto;html=1;entryX=0.5;entryY=0;entryDx=0;entryDy=0;" edge="1" parent="1" source="caGI-VMHAY9TWnrJhwBU-12" target="caGI-VMHAY9TWnrJhwBU-91">
          <mxGeometry relative="1" as="geometry" />
        </mxCell>
        <mxCell id="caGI-VMHAY9TWnrJhwBU-100" style="rounded=0;orthogonalLoop=1;jettySize=auto;html=1;" edge="1" parent="1" source="caGI-VMHAY9TWnrJhwBU-12" target="caGI-VMHAY9TWnrJhwBU-92">
          <mxGeometry relative="1" as="geometry" />
        </mxCell>
        <mxCell id="caGI-VMHAY9TWnrJhwBU-112" style="rounded=0;orthogonalLoop=1;jettySize=auto;html=1;entryX=0.5;entryY=1;entryDx=0;entryDy=0;" edge="1" parent="1" source="caGI-VMHAY9TWnrJhwBU-12" target="caGI-VMHAY9TWnrJhwBU-111">
          <mxGeometry relative="1" as="geometry" />
        </mxCell>
        <mxCell id="caGI-VMHAY9TWnrJhwBU-115" style="rounded=0;orthogonalLoop=1;jettySize=auto;html=1;entryX=0.5;entryY=0;entryDx=0;entryDy=0;" edge="1" parent="1" source="caGI-VMHAY9TWnrJhwBU-12" target="caGI-VMHAY9TWnrJhwBU-114">
          <mxGeometry relative="1" as="geometry" />
        </mxCell>
        <mxCell id="caGI-VMHAY9TWnrJhwBU-12" value="Checkin" style="rhombus;whiteSpace=wrap;html=1;" vertex="1" parent="1">
          <mxGeometry x="788" y="115" width="110" height="80" as="geometry" />
        </mxCell>
        <mxCell id="caGI-VMHAY9TWnrJhwBU-13" value="EVENT" style="rounded=0;whiteSpace=wrap;html=1;" vertex="1" parent="1">
          <mxGeometry x="1128" y="128" width="120" height="60" as="geometry" />
        </mxCell>
        <mxCell id="caGI-VMHAY9TWnrJhwBU-16" value="id_peserta" style="ellipse;whiteSpace=wrap;html=1;" vertex="1" parent="1">
          <mxGeometry x="365" y="222.5" width="60" height="25" as="geometry" />
        </mxCell>
        <mxCell id="caGI-VMHAY9TWnrJhwBU-18" value="instituion" style="ellipse;whiteSpace=wrap;html=1;" vertex="1" parent="1">
          <mxGeometry x="345" y="97" width="60" height="25" as="geometry" />
        </mxCell>
        <mxCell id="caGI-VMHAY9TWnrJhwBU-19" value="position" style="ellipse;whiteSpace=wrap;html=1;" vertex="1" parent="1">
          <mxGeometry x="335" y="136" width="60" height="25" as="geometry" />
        </mxCell>
        <mxCell id="caGI-VMHAY9TWnrJhwBU-24" value="Belanja" style="rounded=0;whiteSpace=wrap;html=1;" vertex="1" parent="1">
          <mxGeometry x="40" y="503" width="120" height="60" as="geometry" />
        </mxCell>
        <mxCell id="caGI-VMHAY9TWnrJhwBU-25" value="MEMBERIKAN" style="rhombus;whiteSpace=wrap;html=1;" vertex="1" parent="1">
          <mxGeometry x="998" y="-50" width="130" height="80" as="geometry" />
        </mxCell>
        <mxCell id="caGI-VMHAY9TWnrJhwBU-30" value="id_event" style="ellipse;whiteSpace=wrap;html=1;" vertex="1" parent="1">
          <mxGeometry x="1275" y="180" width="80" height="30" as="geometry" />
        </mxCell>
        <mxCell id="caGI-VMHAY9TWnrJhwBU-31" value="nama_event" style="ellipse;whiteSpace=wrap;html=1;" vertex="1" parent="1">
          <mxGeometry x="1343" y="150" width="80" height="30" as="geometry" />
        </mxCell>
        <mxCell id="caGI-VMHAY9TWnrJhwBU-32" value="tgl_event" style="ellipse;whiteSpace=wrap;html=1;" vertex="1" parent="1">
          <mxGeometry x="1310" y="110" width="80" height="30" as="geometry" />
        </mxCell>
        <mxCell id="caGI-VMHAY9TWnrJhwBU-33" value="lokasi_event" style="ellipse;whiteSpace=wrap;html=1;" vertex="1" parent="1">
          <mxGeometry x="1220" y="39" width="80" height="30" as="geometry" />
        </mxCell>
        <mxCell id="caGI-VMHAY9TWnrJhwBU-34" value="deskripsi" style="ellipse;whiteSpace=wrap;html=1;" vertex="1" parent="1">
          <mxGeometry x="1305" y="24" width="80" height="30" as="geometry" />
        </mxCell>
        <mxCell id="caGI-VMHAY9TWnrJhwBU-35" value="cp_event" style="ellipse;whiteSpace=wrap;html=1;" vertex="1" parent="1">
          <mxGeometry x="1350" y="63" width="80" height="30" as="geometry" />
        </mxCell>
        <mxCell id="caGI-VMHAY9TWnrJhwBU-36" value="" style="endArrow=none;html=1;rounded=0;entryX=0;entryY=1;entryDx=0;entryDy=0;exitX=1;exitY=0;exitDx=0;exitDy=0;" edge="1" parent="1" source="caGI-VMHAY9TWnrJhwBU-13" target="caGI-VMHAY9TWnrJhwBU-34">
          <mxGeometry width="50" height="50" relative="1" as="geometry">
            <mxPoint x="1233" y="160" as="sourcePoint" />
            <mxPoint x="1283" y="110" as="targetPoint" />
          </mxGeometry>
        </mxCell>
        <mxCell id="caGI-VMHAY9TWnrJhwBU-37" value="" style="endArrow=none;html=1;rounded=0;exitX=1;exitY=0.25;exitDx=0;exitDy=0;entryX=0.5;entryY=0;entryDx=0;entryDy=0;" edge="1" parent="1" source="caGI-VMHAY9TWnrJhwBU-13" target="caGI-VMHAY9TWnrJhwBU-30">
          <mxGeometry width="50" height="50" relative="1" as="geometry">
            <mxPoint x="1293" y="170" as="sourcePoint" />
            <mxPoint x="1343" y="120" as="targetPoint" />
          </mxGeometry>
        </mxCell>
        <mxCell id="caGI-VMHAY9TWnrJhwBU-38" value="nama tempat" style="ellipse;whiteSpace=wrap;html=1;" vertex="1" parent="1">
          <mxGeometry x="-40" y="613" width="80" height="30" as="geometry" />
        </mxCell>
        <mxCell id="caGI-VMHAY9TWnrJhwBU-39" value="deskripsi" style="ellipse;whiteSpace=wrap;html=1;" vertex="1" parent="1">
          <mxGeometry x="20" y="643" width="80" height="30" as="geometry" />
        </mxCell>
        <mxCell id="caGI-VMHAY9TWnrJhwBU-40" value="link ke lokasi" style="ellipse;whiteSpace=wrap;html=1;" vertex="1" parent="1">
          <mxGeometry x="80" y="613" width="80" height="30" as="geometry" />
        </mxCell>
        <mxCell id="caGI-VMHAY9TWnrJhwBU-41" value="alamat" style="ellipse;whiteSpace=wrap;html=1;" vertex="1" parent="1">
          <mxGeometry x="130" y="643" width="80" height="30" as="geometry" />
        </mxCell>
        <mxCell id="caGI-VMHAY9TWnrJhwBU-42" value="" style="endArrow=none;html=1;rounded=0;" edge="1" parent="1">
          <mxGeometry width="50" height="50" relative="1" as="geometry">
            <mxPoint y="613" as="sourcePoint" />
            <mxPoint x="50" y="563" as="targetPoint" />
          </mxGeometry>
        </mxCell>
        <mxCell id="caGI-VMHAY9TWnrJhwBU-43" value="" style="endArrow=none;html=1;rounded=0;entryX=0.25;entryY=1;entryDx=0;entryDy=0;" edge="1" parent="1" target="caGI-VMHAY9TWnrJhwBU-24">
          <mxGeometry width="50" height="50" relative="1" as="geometry">
            <mxPoint x="60" y="643" as="sourcePoint" />
            <mxPoint x="110" y="593" as="targetPoint" />
          </mxGeometry>
        </mxCell>
        <mxCell id="caGI-VMHAY9TWnrJhwBU-44" value="" style="endArrow=none;html=1;rounded=0;entryX=0.5;entryY=1;entryDx=0;entryDy=0;" edge="1" parent="1" target="caGI-VMHAY9TWnrJhwBU-24">
          <mxGeometry width="50" height="50" relative="1" as="geometry">
            <mxPoint x="120" y="613" as="sourcePoint" />
            <mxPoint x="170" y="563" as="targetPoint" />
          </mxGeometry>
        </mxCell>
        <mxCell id="caGI-VMHAY9TWnrJhwBU-45" value="" style="endArrow=none;html=1;rounded=0;entryX=0.75;entryY=1;entryDx=0;entryDy=0;" edge="1" parent="1" target="caGI-VMHAY9TWnrJhwBU-24">
          <mxGeometry width="50" height="50" relative="1" as="geometry">
            <mxPoint x="170" y="643" as="sourcePoint" />
            <mxPoint x="220" y="593" as="targetPoint" />
          </mxGeometry>
        </mxCell>
        <mxCell id="caGI-VMHAY9TWnrJhwBU-46" value="&lt;font style=&quot;font-size: 14px;&quot;&gt;Police&lt;/font&gt;" style="rounded=0;whiteSpace=wrap;html=1;" vertex="1" parent="1">
          <mxGeometry x="-217" y="669" width="120" height="60" as="geometry" />
        </mxCell>
        <mxCell id="caGI-VMHAY9TWnrJhwBU-47" value="gambar" style="ellipse;whiteSpace=wrap;html=1;" vertex="1" parent="1">
          <mxGeometry x="190" y="613" width="80" height="30" as="geometry" />
        </mxCell>
        <mxCell id="caGI-VMHAY9TWnrJhwBU-48" value="" style="endArrow=none;html=1;rounded=0;entryX=1;entryY=1;entryDx=0;entryDy=0;" edge="1" parent="1" target="caGI-VMHAY9TWnrJhwBU-24">
          <mxGeometry width="50" height="50" relative="1" as="geometry">
            <mxPoint x="230" y="613" as="sourcePoint" />
            <mxPoint x="280" y="563" as="targetPoint" />
          </mxGeometry>
        </mxCell>
        <mxCell id="caGI-VMHAY9TWnrJhwBU-49" value="&lt;font style=&quot;font-size: 14px;&quot;&gt;Tempat Wisata&lt;/font&gt;" style="rounded=0;whiteSpace=wrap;html=1;" vertex="1" parent="1">
          <mxGeometry x="-217" y="606" width="120" height="60" as="geometry" />
        </mxCell>
        <mxCell id="caGI-VMHAY9TWnrJhwBU-51" value="gender" style="ellipse;whiteSpace=wrap;html=1;" vertex="1" parent="1">
          <mxGeometry x="569" y="110" width="60" height="25" as="geometry" />
        </mxCell>
        <mxCell id="caGI-VMHAY9TWnrJhwBU-53" value="tgl_aktivasi" style="ellipse;whiteSpace=wrap;html=1;" vertex="1" parent="1">
          <mxGeometry x="576" y="344" width="111" height="25" as="geometry" />
        </mxCell>
        <mxCell id="caGI-VMHAY9TWnrJhwBU-54" value="phone" style="ellipse;whiteSpace=wrap;html=1;" vertex="1" parent="1">
          <mxGeometry x="345" y="185" width="60" height="25" as="geometry" />
        </mxCell>
        <mxCell id="caGI-VMHAY9TWnrJhwBU-56" value="" style="endArrow=none;html=1;rounded=0;exitX=1;exitY=0.25;exitDx=0;exitDy=0;" edge="1" parent="1" source="caGI-VMHAY9TWnrJhwBU-3">
          <mxGeometry width="50" height="50" relative="1" as="geometry">
            <mxPoint x="530" y="409" as="sourcePoint" />
            <mxPoint x="580" y="359" as="targetPoint" />
          </mxGeometry>
        </mxCell>
        <mxCell id="caGI-VMHAY9TWnrJhwBU-61" value="Kuliner&lt;span style=&quot;color: rgba(0, 0, 0, 0); font-family: monospace; font-size: 0px; text-align: start; text-wrap-mode: nowrap;&quot;&gt;%3CmxGraphModel%3E%3Croot%3E%3CmxCell%20id%3D%220%22%2F%3E%3CmxCell%20id%3D%221%22%20parent%3D%220%22%2F%3E%3CmxCell%20id%3D%222%22%20value%3D%22%22%20style%3D%22endArrow%3Dnone%3Bhtml%3D1%3Brounded%3D0%3BexitX%3D0.5%3BexitY%3D0%3BexitDx%3D0%3BexitDy%3D0%3BentryX%3D0.5%3BentryY%3D1%3BentryDx%3D0%3BentryDy%3D0%3B%22%20edge%3D%221%22%20parent%3D%221%22%3E%3CmxGeometry%20width%3D%2250%22%20height%3D%2250%22%20relative%3D%221%22%20as%3D%22geometry%22%3E%3CmxPoint%20x%3D%22461%22%20y%3D%22240%22%20as%3D%22sourcePoint%22%2F%3E%3CmxPoint%20x%3D%22460%22%20y%3D%22180%22%20as%3D%22targetPoint%22%2F%3E%3C%2FmxGeometry%3E%3C%2FmxCell%3E%3C%2Froot%3E%3C%2FmxGraphModel%3E&lt;/span&gt;" style="rounded=0;whiteSpace=wrap;html=1;" vertex="1" parent="1">
          <mxGeometry x="-217" y="516" width="120" height="60" as="geometry" />
        </mxCell>
        <mxCell id="caGI-VMHAY9TWnrJhwBU-62" value="Rumah Sakit" style="rounded=0;whiteSpace=wrap;html=1;" vertex="1" parent="1">
          <mxGeometry x="-217" y="432" width="120" height="60" as="geometry" />
        </mxCell>
        <mxCell id="caGI-VMHAY9TWnrJhwBU-63" value="Klinik" style="rounded=0;whiteSpace=wrap;html=1;" vertex="1" parent="1">
          <mxGeometry x="-217" y="362" width="120" height="60" as="geometry" />
        </mxCell>
        <mxCell id="caGI-VMHAY9TWnrJhwBU-72" value="ADMIN EVENT" style="rounded=0;whiteSpace=wrap;html=1;" vertex="1" parent="1">
          <mxGeometry x="771" y="-115" width="120" height="60" as="geometry" />
        </mxCell>
        <mxCell id="caGI-VMHAY9TWnrJhwBU-73" value="id_admin" style="ellipse;whiteSpace=wrap;html=1;" vertex="1" parent="1">
          <mxGeometry x="700" y="-170" width="80" height="30" as="geometry" />
        </mxCell>
        <mxCell id="caGI-VMHAY9TWnrJhwBU-74" value="username" style="ellipse;whiteSpace=wrap;html=1;" vertex="1" parent="1">
          <mxGeometry x="880" y="-220" width="70" height="30" as="geometry" />
        </mxCell>
        <mxCell id="caGI-VMHAY9TWnrJhwBU-75" value="password" style="ellipse;whiteSpace=wrap;html=1;" vertex="1" parent="1">
          <mxGeometry x="932" y="-190" width="80" height="30" as="geometry" />
        </mxCell>
        <mxCell id="caGI-VMHAY9TWnrJhwBU-76" value="nama" style="ellipse;whiteSpace=wrap;html=1;" vertex="1" parent="1">
          <mxGeometry x="765" y="-210" width="70" height="30" as="geometry" />
        </mxCell>
        <mxCell id="caGI-VMHAY9TWnrJhwBU-77" value="email" style="ellipse;whiteSpace=wrap;html=1;" vertex="1" parent="1">
          <mxGeometry x="823" y="-181" width="70" height="30" as="geometry" />
        </mxCell>
        <mxCell id="caGI-VMHAY9TWnrJhwBU-78" value="" style="endArrow=none;html=1;rounded=0;exitX=0;exitY=0;exitDx=0;exitDy=0;" edge="1" parent="1" source="caGI-VMHAY9TWnrJhwBU-72">
          <mxGeometry width="50" height="50" relative="1" as="geometry">
            <mxPoint x="690" y="-90" as="sourcePoint" />
            <mxPoint x="740" y="-140" as="targetPoint" />
          </mxGeometry>
        </mxCell>
        <mxCell id="caGI-VMHAY9TWnrJhwBU-79" value="" style="endArrow=none;html=1;rounded=0;exitX=0.25;exitY=0;exitDx=0;exitDy=0;" edge="1" parent="1" source="caGI-VMHAY9TWnrJhwBU-72">
          <mxGeometry width="50" height="50" relative="1" as="geometry">
            <mxPoint x="750" y="-130" as="sourcePoint" />
            <mxPoint x="800" y="-180" as="targetPoint" />
          </mxGeometry>
        </mxCell>
        <mxCell id="caGI-VMHAY9TWnrJhwBU-80" value="" style="endArrow=none;html=1;rounded=0;exitX=0.5;exitY=0;exitDx=0;exitDy=0;" edge="1" parent="1" source="caGI-VMHAY9TWnrJhwBU-72">
          <mxGeometry width="50" height="50" relative="1" as="geometry">
            <mxPoint x="810" y="-100" as="sourcePoint" />
            <mxPoint x="860" y="-150" as="targetPoint" />
          </mxGeometry>
        </mxCell>
        <mxCell id="caGI-VMHAY9TWnrJhwBU-81" value="" style="endArrow=none;html=1;rounded=0;exitX=0.75;exitY=0;exitDx=0;exitDy=0;" edge="1" parent="1" source="caGI-VMHAY9TWnrJhwBU-72">
          <mxGeometry width="50" height="50" relative="1" as="geometry">
            <mxPoint x="870" y="-140" as="sourcePoint" />
            <mxPoint x="920" y="-190" as="targetPoint" />
          </mxGeometry>
        </mxCell>
        <mxCell id="caGI-VMHAY9TWnrJhwBU-82" value="" style="endArrow=none;html=1;rounded=0;exitX=1;exitY=0;exitDx=0;exitDy=0;" edge="1" parent="1" source="caGI-VMHAY9TWnrJhwBU-72">
          <mxGeometry width="50" height="50" relative="1" as="geometry">
            <mxPoint x="930" y="-110" as="sourcePoint" />
            <mxPoint x="980" y="-160" as="targetPoint" />
          </mxGeometry>
        </mxCell>
        <mxCell id="caGI-VMHAY9TWnrJhwBU-83" value="" style="endArrow=none;html=1;rounded=0;entryX=0.5;entryY=0;entryDx=0;entryDy=0;" edge="1" parent="1" target="caGI-VMHAY9TWnrJhwBU-25">
          <mxGeometry width="50" height="50" relative="1" as="geometry">
            <mxPoint x="891" y="-80" as="sourcePoint" />
            <mxPoint x="941" y="-130" as="targetPoint" />
            <Array as="points">
              <mxPoint x="1023" y="-80" />
            </Array>
          </mxGeometry>
        </mxCell>
        <mxCell id="caGI-VMHAY9TWnrJhwBU-84" value="" style="endArrow=none;html=1;rounded=0;entryX=0.5;entryY=0;entryDx=0;entryDy=0;exitX=1;exitY=1;exitDx=0;exitDy=0;" edge="1" parent="1" target="caGI-VMHAY9TWnrJhwBU-13" source="caGI-VMHAY9TWnrJhwBU-25">
          <mxGeometry width="50" height="50" relative="1" as="geometry">
            <mxPoint x="1090" y="30" as="sourcePoint" />
            <mxPoint x="1140" y="-20" as="targetPoint" />
            <Array as="points">
              <mxPoint x="1203" y="30" />
            </Array>
          </mxGeometry>
        </mxCell>
        <mxCell id="caGI-VMHAY9TWnrJhwBU-85" value="" style="endArrow=none;html=1;rounded=0;entryX=0;entryY=0.5;entryDx=0;entryDy=0;" edge="1" parent="1" target="caGI-VMHAY9TWnrJhwBU-32">
          <mxGeometry width="50" height="50" relative="1" as="geometry">
            <mxPoint x="1264" y="130" as="sourcePoint" />
            <mxPoint x="1314" y="80" as="targetPoint" />
          </mxGeometry>
        </mxCell>
        <mxCell id="caGI-VMHAY9TWnrJhwBU-86" value="" style="endArrow=none;html=1;rounded=0;entryX=0;entryY=0.5;entryDx=0;entryDy=0;" edge="1" parent="1" target="caGI-VMHAY9TWnrJhwBU-35">
          <mxGeometry width="50" height="50" relative="1" as="geometry">
            <mxPoint x="1260" y="130" as="sourcePoint" />
            <mxPoint x="1310" y="80" as="targetPoint" />
          </mxGeometry>
        </mxCell>
        <mxCell id="caGI-VMHAY9TWnrJhwBU-87" value="" style="endArrow=none;html=1;rounded=0;" edge="1" parent="1">
          <mxGeometry width="50" height="50" relative="1" as="geometry">
            <mxPoint x="1210" y="120" as="sourcePoint" />
            <mxPoint x="1260" y="70" as="targetPoint" />
          </mxGeometry>
        </mxCell>
        <mxCell id="caGI-VMHAY9TWnrJhwBU-88" value="qrcode" style="ellipse;whiteSpace=wrap;html=1;" vertex="1" parent="1">
          <mxGeometry x="580" y="459" width="60" height="25" as="geometry" />
        </mxCell>
        <mxCell id="caGI-VMHAY9TWnrJhwBU-90" value="id_peserta" style="ellipse;whiteSpace=wrap;html=1;" vertex="1" parent="1">
          <mxGeometry x="735" y="220" width="92" height="25" as="geometry" />
        </mxCell>
        <mxCell id="caGI-VMHAY9TWnrJhwBU-91" value="id_event" style="ellipse;whiteSpace=wrap;html=1;" vertex="1" parent="1">
          <mxGeometry x="875" y="214" width="60" height="25" as="geometry" />
        </mxCell>
        <mxCell id="caGI-VMHAY9TWnrJhwBU-92" value="id_checkin" style="ellipse;whiteSpace=wrap;html=1;" vertex="1" parent="1">
          <mxGeometry x="717" y="72" width="152" height="25" as="geometry" />
        </mxCell>
        <mxCell id="caGI-VMHAY9TWnrJhwBU-93" value="id_jenis_peserta" style="ellipse;whiteSpace=wrap;html=1;" vertex="1" parent="1">
          <mxGeometry x="495" y="220" width="122" height="30" as="geometry" />
        </mxCell>
        <mxCell id="caGI-VMHAY9TWnrJhwBU-101" style="rounded=0;orthogonalLoop=1;jettySize=auto;html=1;" edge="1" parent="1" source="caGI-VMHAY9TWnrJhwBU-94" target="caGI-VMHAY9TWnrJhwBU-102">
          <mxGeometry relative="1" as="geometry">
            <mxPoint x="649.934814453125" y="-100" as="targetPoint" />
          </mxGeometry>
        </mxCell>
        <mxCell id="caGI-VMHAY9TWnrJhwBU-124" style="rounded=0;orthogonalLoop=1;jettySize=auto;html=1;entryX=0.5;entryY=1;entryDx=0;entryDy=0;" edge="1" parent="1" source="caGI-VMHAY9TWnrJhwBU-94" target="caGI-VMHAY9TWnrJhwBU-121">
          <mxGeometry relative="1" as="geometry" />
        </mxCell>
        <mxCell id="caGI-VMHAY9TWnrJhwBU-94" value="JENIS PESERTA" style="rounded=0;whiteSpace=wrap;html=1;" vertex="1" parent="1">
          <mxGeometry x="429.5" y="-130" width="120" height="60" as="geometry" />
        </mxCell>
        <mxCell id="caGI-VMHAY9TWnrJhwBU-96" value="tgl_pendaftaran" style="ellipse;whiteSpace=wrap;html=1;" vertex="1" parent="1">
          <mxGeometry x="457" y="478" width="116" height="25" as="geometry" />
        </mxCell>
        <mxCell id="caGI-VMHAY9TWnrJhwBU-102" value="judul" style="ellipse;whiteSpace=wrap;html=1;" vertex="1" parent="1">
          <mxGeometry x="575" y="-190" width="70" height="30" as="geometry" />
        </mxCell>
        <mxCell id="caGI-VMHAY9TWnrJhwBU-104" value="status" style="ellipse;whiteSpace=wrap;html=1;" vertex="1" parent="1">
          <mxGeometry x="326" y="456" width="116" height="25" as="geometry" />
        </mxCell>
        <mxCell id="caGI-VMHAY9TWnrJhwBU-111" value="status_checkin" style="ellipse;whiteSpace=wrap;html=1;" vertex="1" parent="1">
          <mxGeometry x="902" y="97" width="125" height="25" as="geometry" />
        </mxCell>
        <mxCell id="caGI-VMHAY9TWnrJhwBU-113" style="edgeStyle=orthogonalEdgeStyle;rounded=0;orthogonalLoop=1;jettySize=auto;html=1;exitX=0;exitY=0.5;exitDx=0;exitDy=0;entryX=0.939;entryY=0.527;entryDx=0;entryDy=0;entryPerimeter=0;" edge="1" parent="1" source="caGI-VMHAY9TWnrJhwBU-13" target="caGI-VMHAY9TWnrJhwBU-12">
          <mxGeometry relative="1" as="geometry" />
        </mxCell>
        <mxCell id="caGI-VMHAY9TWnrJhwBU-114" value="tgl_checkin" style="ellipse;whiteSpace=wrap;html=1;" vertex="1" parent="1">
          <mxGeometry x="942" y="185" width="89" height="25" as="geometry" />
        </mxCell>
        <mxCell id="caGI-VMHAY9TWnrJhwBU-119" style="rounded=0;orthogonalLoop=1;jettySize=auto;html=1;" edge="1" parent="1" source="caGI-VMHAY9TWnrJhwBU-117" target="caGI-VMHAY9TWnrJhwBU-3">
          <mxGeometry relative="1" as="geometry" />
        </mxCell>
        <mxCell id="caGI-VMHAY9TWnrJhwBU-117" value="Melakukan" style="rhombus;whiteSpace=wrap;html=1;" vertex="1" parent="1">
          <mxGeometry x="432" y="245" width="80" height="80" as="geometry" />
        </mxCell>
        <mxCell id="caGI-VMHAY9TWnrJhwBU-120" value="Memiliki" style="rhombus;whiteSpace=wrap;html=1;" vertex="1" parent="1">
          <mxGeometry x="424.5" y="-31" width="130" height="80" as="geometry" />
        </mxCell>
        <mxCell id="caGI-VMHAY9TWnrJhwBU-121" value="id_jenis_peserta" style="ellipse;whiteSpace=wrap;html=1;" vertex="1" parent="1">
          <mxGeometry x="449" y="-200" width="116" height="30" as="geometry" />
        </mxCell>
        <mxCell id="caGI-VMHAY9TWnrJhwBU-122" value="id_registrasi" style="ellipse;whiteSpace=wrap;html=1;" vertex="1" parent="1">
          <mxGeometry x="291" y="344" width="111" height="25" as="geometry" />
        </mxCell>
        <mxCell id="caGI-VMHAY9TWnrJhwBU-123" value="id_peserta" style="ellipse;whiteSpace=wrap;html=1;" vertex="1" parent="1">
          <mxGeometry x="284" y="388" width="111" height="25" as="geometry" />
        </mxCell>
      </root>
    </mxGraphModel>
  </diagram>
  <diagram name="DFD LV 0" id="yaAUKn4P_T4aYKXTEImO">
    <mxGraphModel dx="1042" dy="527" grid="1" gridSize="10" guides="1" tooltips="1" connect="1" arrows="1" fold="1" page="1" pageScale="1" pageWidth="850" pageHeight="1100" math="0" shadow="0">
      <root>
        <mxCell id="0" />
        <mxCell id="1" parent="0" />
        <mxCell id="vxcye7iG0WU94WpQg27k-2" style="edgeStyle=orthogonalEdgeStyle;rounded=0;orthogonalLoop=1;jettySize=auto;html=1;exitX=1;exitY=0.5;exitDx=0;exitDy=0;entryX=0.5;entryY=0;entryDx=0;entryDy=0;" edge="1" parent="1" source="ivAaPEzPimF0W0xJX1vM-1" target="ivAaPEzPimF0W0xJX1vM-2">
          <mxGeometry relative="1" as="geometry" />
        </mxCell>
        <mxCell id="ivAaPEzPimF0W0xJX1vM-1" value="P.1&lt;br&gt;INFORMASI" style="ellipse;whiteSpace=wrap;html=1;aspect=fixed;" vertex="1" parent="1">
          <mxGeometry x="340" y="30" width="130" height="130" as="geometry" />
        </mxCell>
        <mxCell id="vxcye7iG0WU94WpQg27k-6" style="edgeStyle=orthogonalEdgeStyle;rounded=0;orthogonalLoop=1;jettySize=auto;html=1;exitX=0.25;exitY=1;exitDx=0;exitDy=0;entryX=1;entryY=0.5;entryDx=0;entryDy=0;" edge="1" parent="1" source="ivAaPEzPimF0W0xJX1vM-2" target="ivAaPEzPimF0W0xJX1vM-5">
          <mxGeometry relative="1" as="geometry" />
        </mxCell>
        <mxCell id="ivAaPEzPimF0W0xJX1vM-2" value="PESERTA" style="rounded=0;whiteSpace=wrap;html=1;" vertex="1" parent="1">
          <mxGeometry x="620" y="235" width="120" height="60" as="geometry" />
        </mxCell>
        <mxCell id="ivAaPEzPimF0W0xJX1vM-3" value="ADMIN EVENT" style="rounded=0;whiteSpace=wrap;html=1;" vertex="1" parent="1">
          <mxGeometry x="50" y="235" width="120" height="60" as="geometry" />
        </mxCell>
        <mxCell id="vxcye7iG0WU94WpQg27k-14" style="edgeStyle=orthogonalEdgeStyle;rounded=0;orthogonalLoop=1;jettySize=auto;html=1;exitX=0;exitY=0.5;exitDx=0;exitDy=0;entryX=1;entryY=0.5;entryDx=0;entryDy=0;" edge="1" parent="1">
          <mxGeometry relative="1" as="geometry">
            <mxPoint x="340" y="272" as="sourcePoint" />
            <mxPoint x="170" y="272" as="targetPoint" />
          </mxGeometry>
        </mxCell>
        <mxCell id="ivAaPEzPimF0W0xJX1vM-4" value="P.2&lt;br&gt;REGISTRASI" style="ellipse;whiteSpace=wrap;html=1;aspect=fixed;" vertex="1" parent="1">
          <mxGeometry x="340" y="200" width="130" height="130" as="geometry" />
        </mxCell>
        <mxCell id="vxcye7iG0WU94WpQg27k-7" style="edgeStyle=orthogonalEdgeStyle;rounded=0;orthogonalLoop=1;jettySize=auto;html=1;exitX=1;exitY=1;exitDx=0;exitDy=0;entryX=0.5;entryY=1;entryDx=0;entryDy=0;" edge="1" parent="1" source="ivAaPEzPimF0W0xJX1vM-5" target="ivAaPEzPimF0W0xJX1vM-2">
          <mxGeometry relative="1" as="geometry">
            <Array as="points">
              <mxPoint x="451" y="470" />
              <mxPoint x="680" y="470" />
            </Array>
          </mxGeometry>
        </mxCell>
        <mxCell id="ivAaPEzPimF0W0xJX1vM-5" value="P.3&lt;br&gt;EVENT" style="ellipse;whiteSpace=wrap;html=1;aspect=fixed;" vertex="1" parent="1">
          <mxGeometry x="340" y="380" width="130" height="130" as="geometry" />
        </mxCell>
        <mxCell id="vxcye7iG0WU94WpQg27k-4" value="Info_informasi" style="text;html=1;align=center;verticalAlign=middle;resizable=0;points=[];autosize=1;strokeColor=none;fillColor=none;" vertex="1" parent="1">
          <mxGeometry x="510" y="70" width="100" height="30" as="geometry" />
        </mxCell>
        <mxCell id="vxcye7iG0WU94WpQg27k-5" value="Data_informasi" style="text;html=1;align=center;verticalAlign=middle;resizable=0;points=[];autosize=1;strokeColor=none;fillColor=none;" vertex="1" parent="1">
          <mxGeometry x="510" y="93" width="100" height="30" as="geometry" />
        </mxCell>
        <mxCell id="vxcye7iG0WU94WpQg27k-8" value="Data_event" style="text;html=1;align=center;verticalAlign=middle;resizable=0;points=[];autosize=1;strokeColor=none;fillColor=none;" vertex="1" parent="1">
          <mxGeometry x="490" y="416" width="80" height="30" as="geometry" />
        </mxCell>
        <mxCell id="vxcye7iG0WU94WpQg27k-10" value="Info_event" style="text;html=1;align=center;verticalAlign=middle;resizable=0;points=[];autosize=1;strokeColor=none;fillColor=none;" vertex="1" parent="1">
          <mxGeometry x="490" y="442" width="80" height="30" as="geometry" />
        </mxCell>
        <mxCell id="vxcye7iG0WU94WpQg27k-12" value="" style="endArrow=classic;html=1;rounded=0;entryX=1;entryY=0.702;entryDx=0;entryDy=0;entryPerimeter=0;" edge="1" parent="1" target="ivAaPEzPimF0W0xJX1vM-1">
          <mxGeometry width="50" height="50" relative="1" as="geometry">
            <mxPoint x="650" y="230" as="sourcePoint" />
            <mxPoint x="700" y="190" as="targetPoint" />
            <Array as="points">
              <mxPoint x="650" y="121" />
            </Array>
          </mxGeometry>
        </mxCell>
        <mxCell id="vxcye7iG0WU94WpQg27k-13" style="edgeStyle=orthogonalEdgeStyle;rounded=0;orthogonalLoop=1;jettySize=auto;html=1;exitX=1;exitY=0.25;exitDx=0;exitDy=0;entryX=0.04;entryY=0.378;entryDx=0;entryDy=0;entryPerimeter=0;" edge="1" parent="1" source="ivAaPEzPimF0W0xJX1vM-3" target="ivAaPEzPimF0W0xJX1vM-4">
          <mxGeometry relative="1" as="geometry" />
        </mxCell>
        <mxCell id="vxcye7iG0WU94WpQg27k-15" value="Info_registrasi" style="text;html=1;align=center;verticalAlign=middle;resizable=0;points=[];autosize=1;strokeColor=none;fillColor=none;" vertex="1" parent="1">
          <mxGeometry x="177" y="220" width="100" height="30" as="geometry" />
        </mxCell>
        <mxCell id="vxcye7iG0WU94WpQg27k-16" value="Data_registrasi" style="text;html=1;align=center;verticalAlign=middle;resizable=0;points=[];autosize=1;strokeColor=none;fillColor=none;" vertex="1" parent="1">
          <mxGeometry x="180" y="250" width="100" height="30" as="geometry" />
        </mxCell>
        <mxCell id="vxcye7iG0WU94WpQg27k-18" value="" style="endArrow=classic;html=1;rounded=0;exitX=0.75;exitY=1;exitDx=0;exitDy=0;entryX=0;entryY=1;entryDx=0;entryDy=0;" edge="1" parent="1" source="ivAaPEzPimF0W0xJX1vM-3" target="ivAaPEzPimF0W0xJX1vM-4">
          <mxGeometry width="50" height="50" relative="1" as="geometry">
            <mxPoint x="400" y="300" as="sourcePoint" />
            <mxPoint x="450" y="250" as="targetPoint" />
            <Array as="points">
              <mxPoint x="140" y="310" />
            </Array>
          </mxGeometry>
        </mxCell>
        <mxCell id="vxcye7iG0WU94WpQg27k-19" value="" style="endArrow=classic;html=1;rounded=0;exitX=0.292;exitY=0.975;exitDx=0;exitDy=0;exitPerimeter=0;" edge="1" parent="1" source="ivAaPEzPimF0W0xJX1vM-4">
          <mxGeometry width="50" height="50" relative="1" as="geometry">
            <mxPoint x="210" y="430" as="sourcePoint" />
            <mxPoint x="120" y="300" as="targetPoint" />
            <Array as="points">
              <mxPoint x="378" y="340" />
              <mxPoint x="250" y="340" />
              <mxPoint x="120" y="340" />
            </Array>
          </mxGeometry>
        </mxCell>
        <mxCell id="vxcye7iG0WU94WpQg27k-20" value="Data_qr" style="text;html=1;align=center;verticalAlign=middle;resizable=0;points=[];autosize=1;strokeColor=none;fillColor=none;" vertex="1" parent="1">
          <mxGeometry x="195" y="313" width="70" height="30" as="geometry" />
        </mxCell>
        <mxCell id="vxcye7iG0WU94WpQg27k-21" value="Info_qr" style="text;html=1;align=center;verticalAlign=middle;resizable=0;points=[];autosize=1;strokeColor=none;fillColor=none;" vertex="1" parent="1">
          <mxGeometry x="200" y="284" width="60" height="30" as="geometry" />
        </mxCell>
        <mxCell id="vxcye7iG0WU94WpQg27k-22" value="" style="endArrow=classic;html=1;rounded=0;exitX=0.25;exitY=1;exitDx=0;exitDy=0;entryX=0;entryY=0.5;entryDx=0;entryDy=0;" edge="1" parent="1" source="ivAaPEzPimF0W0xJX1vM-3" target="ivAaPEzPimF0W0xJX1vM-5">
          <mxGeometry width="50" height="50" relative="1" as="geometry">
            <mxPoint x="50" y="400" as="sourcePoint" />
            <mxPoint x="100" y="350" as="targetPoint" />
            <Array as="points">
              <mxPoint x="80" y="445" />
            </Array>
          </mxGeometry>
        </mxCell>
        <mxCell id="vxcye7iG0WU94WpQg27k-24" value="" style="endArrow=classic;html=1;rounded=0;exitX=0.046;exitY=0.742;exitDx=0;exitDy=0;exitPerimeter=0;" edge="1" parent="1" source="ivAaPEzPimF0W0xJX1vM-5">
          <mxGeometry width="50" height="50" relative="1" as="geometry">
            <mxPoint x="220" y="530" as="sourcePoint" />
            <mxPoint x="60" y="300" as="targetPoint" />
            <Array as="points">
              <mxPoint x="60" y="476" />
            </Array>
          </mxGeometry>
        </mxCell>
        <mxCell id="vxcye7iG0WU94WpQg27k-25" value="Data_event" style="text;html=1;align=center;verticalAlign=middle;resizable=0;points=[];autosize=1;strokeColor=none;fillColor=none;" vertex="1" parent="1">
          <mxGeometry x="120" y="415" width="80" height="30" as="geometry" />
        </mxCell>
        <mxCell id="vxcye7iG0WU94WpQg27k-26" value="Info_event" style="text;html=1;align=center;verticalAlign=middle;resizable=0;points=[];autosize=1;strokeColor=none;fillColor=none;" vertex="1" parent="1">
          <mxGeometry x="118" y="447" width="80" height="30" as="geometry" />
        </mxCell>
        <mxCell id="vxcye7iG0WU94WpQg27k-27" value="" style="endArrow=classic;html=1;rounded=0;entryX=1.025;entryY=0.391;entryDx=0;entryDy=0;entryPerimeter=0;" edge="1" parent="1" target="ivAaPEzPimF0W0xJX1vM-4">
          <mxGeometry width="50" height="50" relative="1" as="geometry">
            <mxPoint x="620" y="250" as="sourcePoint" />
            <mxPoint x="670" y="200" as="targetPoint" />
          </mxGeometry>
        </mxCell>
        <mxCell id="vxcye7iG0WU94WpQg27k-28" value="" style="endArrow=classic;html=1;rounded=0;entryX=0;entryY=0.5;entryDx=0;entryDy=0;" edge="1" parent="1">
          <mxGeometry width="50" height="50" relative="1" as="geometry">
            <mxPoint x="470" y="270" as="sourcePoint" />
            <mxPoint x="620" y="269" as="targetPoint" />
          </mxGeometry>
        </mxCell>
        <mxCell id="vxcye7iG0WU94WpQg27k-29" value="Data_registrasi" style="text;html=1;align=center;verticalAlign=middle;resizable=0;points=[];autosize=1;strokeColor=none;fillColor=none;" vertex="1" parent="1">
          <mxGeometry x="500" y="224" width="100" height="30" as="geometry" />
        </mxCell>
        <mxCell id="vxcye7iG0WU94WpQg27k-31" value="Info_registrasi" style="text;html=1;align=center;verticalAlign=middle;resizable=0;points=[];autosize=1;strokeColor=none;fillColor=none;" vertex="1" parent="1">
          <mxGeometry x="500" y="248" width="100" height="30" as="geometry" />
        </mxCell>
        <mxCell id="vxcye7iG0WU94WpQg27k-33" value="" style="endArrow=classic;html=1;rounded=0;entryX=0.994;entryY=0.705;entryDx=0;entryDy=0;entryPerimeter=0;" edge="1" parent="1">
          <mxGeometry width="50" height="50" relative="1" as="geometry">
            <mxPoint x="620" y="292" as="sourcePoint" />
            <mxPoint x="469.22" y="293.65" as="targetPoint" />
          </mxGeometry>
        </mxCell>
        <mxCell id="vxcye7iG0WU94WpQg27k-34" value="" style="endArrow=classic;html=1;rounded=0;exitX=0.772;exitY=0.945;exitDx=0;exitDy=0;exitPerimeter=0;" edge="1" parent="1" source="ivAaPEzPimF0W0xJX1vM-4">
          <mxGeometry width="50" height="50" relative="1" as="geometry">
            <mxPoint x="450" y="310" as="sourcePoint" />
            <mxPoint x="640" y="300" as="targetPoint" />
            <Array as="points">
              <mxPoint x="640" y="320" />
            </Array>
          </mxGeometry>
        </mxCell>
      </root>
    </mxGraphModel>
  </diagram>
</mxfile>
